<?xml version="1.0" encoding="UTF-8"?>
<svg width="700pt" height="700pt" version="1.1" viewBox="0 0 700 700" xmlns="http://www.w3.org/2000/svg">
 <path d="m157.5 455h385c28.875 0 52.5-23.625 52.5-52.5v-245c0-28.875-23.625-52.5-52.5-52.5h-385c-28.875 0-52.5 23.625-52.5 52.5v245c0 28.875 23.625 52.5 52.5 52.5zm385-35h-385c-9.625 0-17.5-7.875-17.5-17.5v-244.48l156.62 120.4c15.75 12.074 34.477 18.199 53.375 18.199s37.625-6.125 53.375-18.199l156.62-120.4v244.48c0 9.625-7.875 17.5-17.5 17.5zm-368.55-280h352.1l-144.02 110.77c-18.898 14.523-45.148 14.523-64.051 0z"/>
</svg>
